<svg width="47" height="55" viewBox="0 0 47 55" fill="none" xmlns="http://www.w3.org/2000/svg">
<g clip-path="url(#clip0_6_42)">
<path d="M44.0258 19.0317H42.7512V12.8902C42.7501 12.8512 42.7464 12.8123 42.7399 12.7738C42.7417 12.5271 42.6535 12.2881 42.4918 12.1016L32.2608 0.428759L32.2533 0.421249C32.192 0.355147 32.1225 0.297102 32.0465 0.248513L31.9788 0.207206C31.9138 0.171115 31.8451 0.142157 31.7739 0.120837L31.7175 0.102062C31.6394 0.0826125 31.5592 0.0725281 31.4787 0.0720215H6.32996C5.18128 0.0720215 4.2488 1.00517 4.2488 2.15049V19.0298H2.97416C1.33104 19.0298 0 20.3591 0 22.0001V37.4488C0 39.0879 1.33292 40.4191 2.97416 40.4191H4.2488V50.9936C4.2488 52.1389 5.18128 53.072 6.32996 53.072H40.67C41.8168 53.072 42.7512 52.1389 42.7512 50.9936V40.4191H44.0258C45.6671 40.4191 47 39.0898 47 37.4488V22.0001C47 20.361 45.669 19.0317 44.0258 19.0317ZM6.32996 2.15049H30.4372V12.785C30.4372 13.3596 30.9034 13.8233 31.4787 13.8233H40.6719V19.0298H6.32996V2.15049ZM21.9001 30.6294C19.3734 29.7282 17.7058 28.3313 17.7058 26.1252C17.7058 23.536 19.8942 21.5777 23.4568 21.5777C25.1939 21.5777 26.4328 21.9157 27.3352 22.3419L26.5682 25.0887C25.5851 24.6106 24.5051 24.3645 23.4116 24.3696C21.9227 24.3696 21.2008 25.0662 21.2008 25.8323C21.2008 26.8011 22.0336 27.2273 24.0189 27.9708C26.7035 28.9622 27.9424 30.3572 27.9424 32.4976C27.9424 35.0436 26.0042 37.2047 21.8324 37.2047C20.0953 37.2047 18.3826 36.7315 17.5254 36.2584L18.2247 33.4439C19.4053 34.0459 20.7082 34.3696 22.0336 34.3902C23.6128 34.3902 24.4475 33.7349 24.4475 32.7455C24.4475 31.7992 23.7275 31.2603 21.9001 30.6294ZM3.99124 29.593C3.99124 24.4353 7.6892 21.5758 12.2877 21.5758C14.0699 21.5758 15.4216 21.9344 16.0308 22.2292L15.3088 24.9536C14.3956 24.5706 13.4134 24.3789 12.423 24.3903C9.71772 24.3903 7.59896 26.0332 7.59896 29.4109C7.59896 32.4282 9.40188 34.3433 12.4456 34.3433C13.5059 34.3433 14.6339 34.1424 15.3314 33.8476L15.8296 36.5494C15.2205 36.8404 13.7766 37.2028 11.9512 37.2028C6.69656 37.2047 3.99124 33.9171 3.99124 29.593ZM40.67 50.434H6.32996V40.421H40.67V50.434ZM37.8914 36.9794H33.8776L29.0084 21.8011H32.774L34.6221 28.2205C35.1391 30.0436 35.6128 31.756 35.9738 33.6467H36.0415C36.4259 31.8425 36.8844 30.0548 37.4158 28.2881L39.3559 21.803H43.0069L37.8914 36.9794Z" fill="#ED4C5C"/>
</g>
<defs>
<clipPath id="clip0_6_42">
<rect width="47" height="54" fill="white" transform="translate(0 0.0720215)"/>
</clipPath>
</defs>
</svg>
