<svg width="66" height="67" viewBox="0 0 66 67" fill="none" xmlns="http://www.w3.org/2000/svg">
<path fill-rule="evenodd" clip-rule="evenodd" d="M33.9732 3.60691L55.8744 11.0706C56.4094 11.2575 56.8477 11.8698 56.8348 12.437V43.5292C56.8348 44.1028 56.4674 44.8505 56.0227 45.1985L33.8057 62.5106C33.5865 62.6846 33.29 62.7749 32.9936 62.7749C32.6971 62.7749 32.407 62.6846 32.1814 62.5106L9.96445 45.1985C9.51973 44.844 9.15234 44.0964 9.15234 43.5292V12.437C9.15234 11.8698 9.59063 11.251 10.1256 11.0706L32.0268 3.60691C32.291 3.51667 32.6455 3.47156 33 3.47156C33.3545 3.47156 33.709 3.51667 33.9732 3.60691ZM33 57.2577L52.207 42.2917V14.7315L33 8.18308L13.793 14.7315V42.2917L33 57.2577Z" fill="#ED4C5C"/>
<path fill-rule="evenodd" clip-rule="evenodd" d="M25.9682 34.2028L20.973 39.1979C20.8771 39.2948 20.8233 39.4257 20.8233 39.5621C20.8233 39.6985 20.8771 39.8293 20.973 39.9262L23.1645 42.1176C23.3643 42.3175 23.693 42.3175 23.8928 42.1176L28.8879 37.1225C32.4779 39.3848 37.2732 38.953 40.3992 35.827C44.0279 32.1983 44.0279 26.3202 40.3992 22.6915C36.7705 19.0628 30.8924 19.0628 27.2637 22.6915C24.1377 25.8175 23.7059 30.6192 25.9682 34.2028ZM37.4795 25.6112C35.4686 23.5938 32.2008 23.5938 30.1834 25.6112C28.166 27.6286 28.1725 30.8899 30.1834 32.9073C32.1943 34.9247 35.4621 34.9247 37.4795 32.9073C39.4969 30.8964 39.4969 27.6286 37.4795 25.6112Z" fill="#ED4C5C"/>
</svg>
