<svg width="70" height="71" viewBox="0 0 70 71" fill="none" xmlns="http://www.w3.org/2000/svg">
<path d="M23.7229 35.8215C23.7229 34.3676 22.7128 33.4991 20.9318 33.4991C20.2049 33.4991 19.7133 33.5699 19.455 33.6388V38.3084C19.7611 38.3773 20.136 38.4022 20.6506 38.4022C22.5502 38.4022 23.7229 37.4399 23.7229 35.8215Z" fill="#ED4C5C"/>
<path d="M34.7532 33.545C33.9555 33.545 33.439 33.6158 33.1329 33.6866V44.0321C33.439 44.1029 33.9306 44.1029 34.3764 44.1029C37.6132 44.1258 39.7251 42.3429 39.7251 38.5667C39.75 35.282 37.8255 33.545 34.7532 33.545Z" fill="#ED4C5C"/>
<path d="M55.8861 27.4675H54.5891V21.2101C54.588 21.1703 54.5842 21.1307 54.5776 21.0915C54.5797 20.8398 54.4907 20.5959 54.327 20.4047L43.9146 8.51353L43.9069 8.50588C43.7747 8.36239 43.6061 8.2573 43.4191 8.20172L43.3617 8.18259C43.2822 8.16277 43.2007 8.15249 43.1187 8.15198H17.5286C16.3598 8.15198 15.4109 9.10274 15.4109 10.2697V27.4675H14.1139C12.442 27.4675 11.0876 28.8219 11.0876 30.4939V46.234C11.0876 47.904 12.4439 49.2603 14.1139 49.2603H15.4109V60.0362C15.4109 61.2032 16.3598 62.1539 17.5286 62.1539H52.4714C53.6383 62.1539 54.5891 61.2032 54.5891 60.0362V49.2603H55.8861C57.558 49.2603 58.9124 47.904 58.9124 46.234V30.4939C58.9124 28.8219 57.5561 27.4675 55.8861 27.4675ZM17.5286 10.2697H42.059V21.1049C42.059 21.6902 42.5334 22.1628 43.1187 22.1628H52.4733V27.4675H17.5286V10.2697ZM43.5262 38.4481C43.5262 41.4744 42.4243 43.5634 40.8958 44.8528C39.2315 46.2359 36.6987 46.894 33.6016 46.894C31.7479 46.894 30.4356 46.7754 29.5422 46.6606V31.129C30.8564 30.9185 32.5686 30.8018 34.3764 30.8018C37.3778 30.8018 39.3253 31.3413 40.8499 32.491C42.4932 33.7096 43.5262 35.657 43.5262 38.4481ZM15.9102 46.7314V31.129C17.0121 30.9415 18.5616 30.8018 20.7424 30.8018C22.9481 30.8018 24.5206 31.2246 25.5747 32.0682C26.5828 32.866 27.2619 34.1802 27.2619 35.7278C27.2619 37.2773 26.7473 38.5896 25.8081 39.4811C24.5876 40.6308 22.7817 41.1473 20.6697 41.1473C20.2011 41.1473 19.7783 41.1244 19.4512 41.0765V46.7314H15.9102ZM52.4714 59.4623H17.5286V49.2603H52.4714V59.4623ZM55.5398 33.8512H49.4622V37.4648H55.14V40.3745H49.4622V46.7314H45.8754V30.9185H55.5398V33.8512Z" fill="#ED4C5C"/>
</svg>
