<svg width="80" height="81" viewBox="0 0 80 81" fill="none" xmlns="http://www.w3.org/2000/svg">
<path d="M48.75 55.3477H42.9609V36.418C42.9609 36.0742 42.6797 35.793 42.3359 35.793H37.6484C37.3047 35.793 37.0234 36.0742 37.0234 36.418V55.3477H31.25C30.7265 55.3477 30.4375 55.9492 30.7578 56.3555L39.5078 67.4258C39.5663 67.5005 39.641 67.5609 39.7262 67.6024C39.8115 67.644 39.9051 67.6656 40 67.6656C40.0948 67.6656 40.1885 67.644 40.2737 67.6024C40.359 67.5609 40.4337 67.5005 40.4922 67.4258L49.2422 56.3555C49.5625 55.9492 49.2734 55.3477 48.75 55.3477Z" fill="#ED4C5C"/>
<path d="M63.3906 28.8164C59.8125 19.3789 50.6953 12.668 40.0156 12.668C29.3359 12.668 20.2188 19.3711 16.6406 28.8086C9.94531 30.5664 5 36.668 5 43.918C5 52.5508 11.9922 59.543 20.6172 59.543H23.75C24.0938 59.543 24.375 59.2617 24.375 58.918V54.2305C24.375 53.8867 24.0938 53.6055 23.75 53.6055H20.6172C17.9844 53.6055 15.5078 52.5586 13.6641 50.6602C11.8281 48.7695 10.8516 46.2227 10.9375 43.582C11.0078 41.5195 11.7109 39.582 12.9844 37.9492C14.2891 36.2852 16.1172 35.0742 18.1484 34.5352L21.1094 33.7617L22.1953 30.9023C22.8672 29.1211 23.8047 27.457 24.9844 25.9492C26.149 24.4547 27.5286 23.141 29.0781 22.0508C32.2891 19.793 36.0703 18.5977 40.0156 18.5977C43.9609 18.5977 47.7422 19.793 50.9531 22.0508C52.5078 23.1445 53.8828 24.457 55.0469 25.9492C56.2266 27.457 57.1641 29.1289 57.8359 30.9023L58.9141 33.7539L61.8672 34.5352C66.1016 35.6758 69.0625 39.5273 69.0625 43.918C69.0625 46.5039 68.0547 48.9414 66.2266 50.7695C65.33 51.6713 64.2635 52.3863 63.0888 52.8731C61.914 53.3599 60.6544 53.6088 59.3828 53.6055H56.25C55.9062 53.6055 55.625 53.8867 55.625 54.2305V58.918C55.625 59.2617 55.9062 59.543 56.25 59.543H59.3828C68.0078 59.543 75 52.5508 75 43.918C75 36.6758 70.0703 30.582 63.3906 28.8164Z" fill="#ED4C5C"/>
</svg>
